<svg width="4" height="7" viewBox="0 0 4 7" fill="none" xmlns="http://www.w3.org/2000/svg">
<path d="M0.791381 0.13416C0.701274 0.0473511 0.591577 1.78863e-07 0.46621 1.67903e-07C0.203722 1.44956e-07 1.17184e-07 0.205186 9.44169e-08 0.465614C8.30333e-08 0.595829 0.0509306 0.714205 0.141038 0.804961L2.88345 3.50395L0.141038 6.19504C0.0509301 6.28579 -4.25093e-07 6.40812 -4.36132e-07 6.53439C-4.58899e-07 6.79481 0.203722 7 0.466209 7C0.591577 7 0.701273 6.95265 0.787463 6.86584L3.83546 3.86697C3.94515 3.76437 4 3.63811 4 3.5C4 3.36189 3.94515 3.24352 3.83937 3.13698L0.791381 0.13416Z" fill="#909093"/>
</svg>
