<svg width="375" height="48" viewBox="0 0 375 48" fill="none" xmlns="http://www.w3.org/2000/svg">
<rect width="375" height="48" fill="white"/>
<rect x="58.5" y="6.5" width="301" height="35" rx="17.5" stroke="#C5C5C7"/>
<path d="M71.2158 29V21.1045H72.4902V29H71.2158ZM71.8604 19.5811C71.6211 19.5811 71.4136 19.4956 71.2378 19.3247C71.0669 19.1489 70.9814 18.9414 70.9814 18.7021C70.9814 18.458 71.0669 18.2505 71.2378 18.0796C71.4136 17.9087 71.6211 17.8232 71.8604 17.8232C72.1045 17.8232 72.312 17.9087 72.4829 18.0796C72.6538 18.2505 72.7393 18.458 72.7393 18.7021C72.7393 18.9414 72.6538 19.1489 72.4829 19.3247C72.312 19.4956 72.1045 19.5811 71.8604 19.5811ZM74.4537 29V18.4312H75.9845L79.6026 27.2495H79.7198L83.338 18.4312H84.8688V29H83.6383V20.9287H82.9938L84.4732 18.7241L80.2179 29H79.1046L74.8565 18.7241L76.3287 20.9287H75.6842V29H74.4537ZM90.0256 29.1392C89.2736 29.1392 88.6267 28.9731 88.0847 28.6411C87.5476 28.3091 87.1325 27.8403 86.8396 27.2349C86.5515 26.6245 86.4074 25.9067 86.4074 25.0815V25.0742C86.4074 24.2588 86.5515 23.5435 86.8396 22.9282C87.1325 22.313 87.5451 21.832 88.0773 21.4854C88.6096 21.1387 89.2321 20.9653 89.945 20.9653C90.6628 20.9653 91.278 21.1313 91.7907 21.4634C92.3083 21.7954 92.7038 22.2593 92.9772 22.855C93.2556 23.4458 93.3947 24.1343 93.3947 24.9204V25.4185H87.0666V24.4004H92.7429L92.113 25.3306V24.8252C92.113 24.2051 92.0202 23.6948 91.8347 23.2944C91.6491 22.894 91.3928 22.5962 91.0656 22.4009C90.7385 22.2007 90.3625 22.1006 89.9377 22.1006C89.5129 22.1006 89.132 22.2056 88.7951 22.4155C88.4631 22.6206 88.1994 22.9258 88.0041 23.3311C87.8088 23.7363 87.7111 24.2344 87.7111 24.8252V25.3306C87.7111 25.8921 87.8063 26.373 87.9968 26.7734C88.1872 27.1689 88.4582 27.4741 88.8098 27.689C89.1613 27.8989 89.5764 28.0039 90.0549 28.0039C90.4113 28.0039 90.7214 27.9551 90.9851 27.8574C91.2487 27.7598 91.466 27.6353 91.6369 27.4839C91.8078 27.3325 91.9274 27.1787 91.9958 27.0225L92.0251 26.9565H93.2995L93.2849 27.0151C93.2165 27.2837 93.0944 27.5449 92.9187 27.7988C92.7478 28.0479 92.5256 28.2749 92.2521 28.48C91.9787 28.6802 91.654 28.8413 91.278 28.9634C90.9069 29.0806 90.4895 29.1392 90.0256 29.1392ZM97.4822 29.1392C96.8963 29.1392 96.3787 29.0513 95.9295 28.8755C95.4803 28.6948 95.1189 28.4434 94.8455 28.1211C94.577 27.7988 94.4183 27.4204 94.3694 26.9858H95.6731C95.7806 27.313 95.9905 27.5767 96.303 27.7769C96.6155 27.9771 97.0232 28.0771 97.5262 28.0771C97.8826 28.0771 98.1951 28.0259 98.4637 27.9233C98.7371 27.8159 98.952 27.6719 99.1082 27.4912C99.2645 27.3057 99.3426 27.0933 99.3426 26.854V26.8394C99.3426 26.5708 99.2352 26.3438 99.0203 26.1582C98.8055 25.9678 98.4539 25.814 97.9656 25.6968L96.7425 25.4038C96.2493 25.2866 95.844 25.1353 95.5267 24.9497C95.2093 24.7593 94.9749 24.5273 94.8235 24.2539C94.6722 23.9756 94.5965 23.6484 94.5965 23.2725V23.2651C94.5965 22.8257 94.7234 22.4326 94.9773 22.0859C95.2361 21.7393 95.5877 21.4658 96.032 21.2656C96.4764 21.0654 96.9769 20.9653 97.5335 20.9653C98.0853 20.9653 98.5735 21.0532 98.9983 21.229C99.428 21.3999 99.7723 21.644 100.031 21.9614C100.295 22.2788 100.456 22.6523 100.514 23.082H99.262C99.179 22.7695 98.9886 22.5156 98.6907 22.3203C98.3929 22.125 98.0047 22.0273 97.5262 22.0273C97.2137 22.0273 96.9354 22.0786 96.6912 22.1812C96.4471 22.2788 96.2542 22.4155 96.1126 22.5913C95.971 22.7671 95.9002 22.9722 95.9002 23.2065V23.2212C95.9002 23.397 95.9466 23.5532 96.0394 23.6899C96.1321 23.8267 96.2762 23.9463 96.4715 24.0488C96.6668 24.1514 96.9183 24.2417 97.2259 24.3198L98.4417 24.6128C99.1839 24.7935 99.7356 25.0522 100.097 25.3892C100.463 25.7261 100.646 26.1777 100.646 26.7441V26.7588C100.646 27.2275 100.507 27.6426 100.229 28.0039C99.9505 28.3604 99.5721 28.6387 99.0936 28.8389C98.6199 29.0391 98.0828 29.1392 97.4822 29.1392ZM104.587 29.1392C104.001 29.1392 103.484 29.0513 103.035 28.8755C102.585 28.6948 102.224 28.4434 101.951 28.1211C101.682 27.7988 101.523 27.4204 101.475 26.9858H102.778C102.886 27.313 103.096 27.5767 103.408 27.7769C103.721 27.9771 104.128 28.0771 104.631 28.0771C104.988 28.0771 105.3 28.0259 105.569 27.9233C105.842 27.8159 106.057 27.6719 106.213 27.4912C106.37 27.3057 106.448 27.0933 106.448 26.854V26.8394C106.448 26.5708 106.34 26.3438 106.125 26.1582C105.911 25.9678 105.559 25.814 105.071 25.6968L103.848 25.4038C103.354 25.2866 102.949 25.1353 102.632 24.9497C102.314 24.7593 102.08 24.5273 101.929 24.2539C101.777 23.9756 101.702 23.6484 101.702 23.2725V23.2651C101.702 22.8257 101.829 22.4326 102.082 22.0859C102.341 21.7393 102.693 21.4658 103.137 21.2656C103.581 21.0654 104.082 20.9653 104.639 20.9653C105.19 20.9653 105.679 21.0532 106.103 21.229C106.533 21.3999 106.877 21.644 107.136 21.9614C107.4 22.2788 107.561 22.6523 107.62 23.082H106.367C106.284 22.7695 106.094 22.5156 105.796 22.3203C105.498 22.125 105.11 22.0273 104.631 22.0273C104.319 22.0273 104.04 22.0786 103.796 22.1812C103.552 22.2788 103.359 22.4155 103.218 22.5913C103.076 22.7671 103.005 22.9722 103.005 23.2065V23.2212C103.005 23.397 103.052 23.5532 103.144 23.6899C103.237 23.8267 103.381 23.9463 103.577 24.0488C103.772 24.1514 104.023 24.2417 104.331 24.3198L105.547 24.6128C106.289 24.7935 106.841 25.0522 107.202 25.3892C107.568 25.7261 107.751 26.1777 107.751 26.7441V26.7588C107.751 27.2275 107.612 27.6426 107.334 28.0039C107.056 28.3604 106.677 28.6387 106.199 28.8389C105.725 29.0391 105.188 29.1392 104.587 29.1392ZM111.297 29.1392C110.799 29.1392 110.35 29.0439 109.949 28.8535C109.554 28.6631 109.239 28.3921 109.004 28.0405C108.775 27.689 108.66 27.2739 108.66 26.7954V26.7808C108.66 26.312 108.772 25.9116 108.997 25.5796C109.222 25.2427 109.549 24.979 109.979 24.7886C110.408 24.5981 110.928 24.4858 111.539 24.4517L114.439 24.2759V25.2939L111.692 25.4697C111.092 25.5039 110.652 25.6284 110.374 25.8433C110.101 26.0581 109.964 26.3608 109.964 26.7515V26.7661C109.964 27.1665 110.115 27.479 110.418 27.7036C110.721 27.9233 111.102 28.0332 111.561 28.0332C111.995 28.0332 112.381 27.9478 112.718 27.7769C113.055 27.6011 113.318 27.3643 113.509 27.0664C113.704 26.7686 113.802 26.4316 113.802 26.0557V23.5947C113.802 23.1064 113.653 22.7354 113.355 22.4814C113.062 22.2227 112.62 22.0933 112.029 22.0933C111.556 22.0933 111.167 22.1787 110.865 22.3496C110.562 22.5156 110.359 22.7524 110.257 23.0601L110.25 23.082H108.975L108.982 23.0381C109.051 22.623 109.222 22.2617 109.495 21.9541C109.773 21.6416 110.132 21.3999 110.572 21.229C111.011 21.0532 111.512 20.9653 112.073 20.9653C112.718 20.9653 113.262 21.0703 113.707 21.2803C114.156 21.4902 114.495 21.793 114.725 22.1885C114.959 22.5791 115.076 23.0479 115.076 23.5947V29H113.802V27.8354H113.685C113.519 28.1138 113.316 28.3506 113.077 28.5459C112.842 28.7412 112.576 28.8901 112.278 28.9927C111.98 29.0903 111.653 29.1392 111.297 29.1392ZM120.057 31.7832C119.422 31.7832 118.868 31.6929 118.395 31.5122C117.921 31.3364 117.543 31.085 117.259 30.7578C116.981 30.4355 116.808 30.0596 116.739 29.6299L116.754 29.6226H118.072L118.08 29.6299C118.148 29.9277 118.353 30.1719 118.695 30.3623C119.037 30.5576 119.491 30.6553 120.057 30.6553C120.765 30.6553 121.317 30.4941 121.713 30.1719C122.113 29.8545 122.313 29.4053 122.313 28.8242V27.2275H122.196C122.03 27.5156 121.822 27.7622 121.573 27.9673C121.324 28.1724 121.044 28.3286 120.731 28.436C120.419 28.5386 120.082 28.5898 119.72 28.5898C119.042 28.5898 118.453 28.4287 117.955 28.1064C117.462 27.7793 117.081 27.3301 116.813 26.7588C116.544 26.1875 116.41 25.5332 116.41 24.7959V24.7812C116.41 24.0439 116.544 23.3896 116.813 22.8184C117.086 22.2422 117.472 21.7905 117.97 21.4634C118.468 21.1313 119.061 20.9653 119.75 20.9653C120.121 20.9653 120.463 21.0239 120.775 21.1411C121.088 21.2583 121.363 21.4243 121.603 21.6392C121.847 21.854 122.049 22.1104 122.211 22.4082H122.298V21.1045H123.573V28.8901C123.573 29.4761 123.429 29.9863 123.141 30.4209C122.858 30.8555 122.452 31.1899 121.925 31.4243C121.398 31.6636 120.775 31.7832 120.057 31.7832ZM119.999 27.4619C120.487 27.4619 120.904 27.3496 121.251 27.125C121.603 26.8955 121.871 26.5806 122.057 26.1802C122.247 25.7798 122.342 25.3184 122.342 24.7959V24.7812C122.342 24.2588 122.247 23.7949 122.057 23.3896C121.871 22.9844 121.603 22.667 121.251 22.4375C120.904 22.208 120.487 22.0933 119.999 22.0933C119.51 22.0933 119.095 22.208 118.754 22.4375C118.417 22.667 118.158 22.9844 117.977 23.3896C117.801 23.7949 117.713 24.2588 117.713 24.7812V24.7959C117.713 25.3184 117.801 25.7798 117.977 26.1802C118.158 26.5806 118.417 26.8955 118.754 27.125C119.095 27.3496 119.51 27.4619 119.999 27.4619ZM128.569 29.1392C127.817 29.1392 127.17 28.9731 126.628 28.6411C126.091 28.3091 125.675 27.8403 125.383 27.2349C125.094 26.6245 124.95 25.9067 124.95 25.0815V25.0742C124.95 24.2588 125.094 23.5435 125.383 22.9282C125.675 22.313 126.088 21.832 126.62 21.4854C127.153 21.1387 127.775 20.9653 128.488 20.9653C129.206 20.9653 129.821 21.1313 130.334 21.4634C130.851 21.7954 131.247 22.2593 131.52 22.855C131.799 23.4458 131.938 24.1343 131.938 24.9204V25.4185H125.61V24.4004H131.286L130.656 25.3306V24.8252C130.656 24.2051 130.563 23.6948 130.378 23.2944C130.192 22.894 129.936 22.5962 129.609 22.4009C129.281 22.2007 128.905 22.1006 128.481 22.1006C128.056 22.1006 127.675 22.2056 127.338 22.4155C127.006 22.6206 126.742 22.9258 126.547 23.3311C126.352 23.7363 126.254 24.2344 126.254 24.8252V25.3306C126.254 25.8921 126.349 26.373 126.54 26.7734C126.73 27.1689 127.001 27.4741 127.353 27.689C127.704 27.8989 128.119 28.0039 128.598 28.0039C128.954 28.0039 129.264 27.9551 129.528 27.8574C129.792 27.7598 130.009 27.6353 130.18 27.4839C130.351 27.3325 130.47 27.1787 130.539 27.0225L130.568 26.9565H131.842L131.828 27.0151C131.759 27.2837 131.637 27.5449 131.462 27.7988C131.291 28.0479 131.069 28.2749 130.795 28.48C130.522 28.6802 130.197 28.8413 129.821 28.9634C129.45 29.0806 129.032 29.1392 128.569 29.1392Z" fill="#C5C5C7"/>
<path d="M340 26.4062C338.438 26.4062 337.391 25.2422 337.391 23.5781V18.3516C337.391 16.6797 338.438 15.5234 340 15.5234C341.555 15.5234 342.602 16.6797 342.602 18.3516V23.5781C342.602 25.2422 341.555 26.4062 340 26.4062ZM334.406 23.7031V22.1172C334.406 21.7891 334.664 21.5312 334.992 21.5312C335.328 21.5312 335.586 21.7891 335.586 22.1172V23.6562C335.586 26.3203 337.32 28.0859 340 28.0859C342.672 28.0859 344.406 26.3203 344.406 23.6562V22.1172C344.406 21.7891 344.672 21.5312 345 21.5312C345.328 21.5312 345.586 21.7891 345.586 22.1172V23.7031C345.586 26.7656 343.57 28.9141 340.586 29.1641V30.9844H343.484C343.812 30.9844 344.078 31.25 344.078 31.5781C344.078 31.9062 343.812 32.1641 343.484 32.1641H336.508C336.18 32.1641 335.914 31.9062 335.914 31.5781C335.914 31.25 336.18 30.9844 336.508 30.9844H339.406V29.1641C336.43 28.9141 334.406 26.7656 334.406 23.7031Z" fill="#B4B8BF"/>
<circle cx="29" cy="24" r="17" fill="#E8E9EB"/>
<path d="M22.5547 24.3594C22.5547 23.9766 22.875 23.6562 23.25 23.6562H28.3047V18.6094C28.3047 18.2344 28.6172 17.9141 29 17.9141C29.3828 17.9141 29.7031 18.2344 29.7031 18.6094V23.6562H34.75C35.125 23.6562 35.4453 23.9766 35.4453 24.3594C35.4453 24.7422 35.125 25.0547 34.75 25.0547H29.7031V30.1094C29.7031 30.4844 29.3828 30.8047 29 30.8047C28.6172 30.8047 28.3047 30.4844 28.3047 30.1094V25.0547H23.25C22.875 25.0547 22.5547 24.7422 22.5547 24.3594Z" fill="#7D7F85"/>
</svg>
