<svg width="410" height="410" viewBox="0 0 410 410" fill="none" xmlns="http://www.w3.org/2000/svg">
  <path d="M410 205C410 91.7816 318.218 0 205 0C91.7816 0 0 91.7816 0 205C0 318.218 91.7816 410 205 410C318.218 410 410 318.218 410 205Z" fill="url(#paint0_linear_12_4)"/>
  <path fill-rule="evenodd" clip-rule="evenodd" d="M83.1602 332.247C110.793 293.972 155.788 269.062 206.602 269.062C256.606 269.062 300.977 293.185 328.711 330.428C296.9 361.806 253.212 381.172 205 381.172C157.727 381.172 114.802 362.552 83.1602 332.247ZM275.469 164.961C275.469 204.764 244.636 237.031 206.602 237.031C168.567 237.031 137.734 204.764 137.734 164.961C137.734 125.158 168.567 92.8906 206.602 92.8906C244.636 92.8906 275.469 125.158 275.469 164.961Z" fill="white"/>
  <defs>
    <linearGradient id="paint0_linear_12_4" x1="205" y1="0" x2="205" y2="410" gradientUnits="userSpaceOnUse">
      <stop stop-color="#A5ABB7"/>
      <stop offset="1" stop-color="#848B94"/>
    </linearGradient>
  </defs>
</svg>