<svg width="375" height="44" viewBox="0 0 375 44" fill="none" xmlns="http://www.w3.org/2000/svg">
<g clip-path="url(#clip0_883_502)">
<rect opacity="0.35" x="335.5" y="17.8333" width="21" height="10.3333" rx="2.16667" stroke="black"/>
<path opacity="0.4" d="M358 21V25C358.805 24.6612 359.328 23.8731 359.328 23C359.328 22.1269 358.805 21.3388 358 21Z" fill="black"/>
<rect x="337" y="19" width="18" height="8" rx="1.33333" fill="black"/>
<path fill-rule="evenodd" clip-rule="evenodd" d="M324.33 19.608C326.546 19.6081 328.678 20.4595 330.283 21.9863C330.404 22.1042 330.598 22.1027 330.717 21.983L331.873 20.8163C331.933 20.7556 331.967 20.6734 331.966 20.5878C331.966 20.5022 331.931 20.4203 331.87 20.3603C327.655 16.3208 321.005 16.3208 316.79 20.3603C316.729 20.4203 316.694 20.5021 316.694 20.5877C316.693 20.6733 316.727 20.7556 316.787 20.8163L317.943 21.983C318.062 22.1029 318.256 22.1044 318.377 21.9863C319.983 20.4594 322.114 19.608 324.33 19.608ZM324.33 23.4037C325.548 23.4036 326.722 23.8561 327.624 24.6733C327.747 24.7893 327.939 24.7868 328.058 24.6677L329.212 23.501C329.273 23.4398 329.307 23.3568 329.306 23.2705C329.305 23.1843 329.27 23.1019 329.208 23.042C326.46 20.4856 322.204 20.4856 319.455 23.042C319.393 23.1019 319.358 23.1843 319.357 23.2706C319.356 23.3569 319.39 23.4399 319.451 23.501L320.605 24.6677C320.724 24.7868 320.917 24.7893 321.039 24.6733C321.941 23.8567 323.114 23.4042 324.33 23.4037ZM326.643 25.9575C326.645 26.044 326.611 26.1274 326.549 26.188L324.552 28.2037C324.494 28.2629 324.414 28.2962 324.33 28.2962C324.247 28.2962 324.167 28.2629 324.109 28.2037L322.111 26.188C322.049 26.1273 322.015 26.0439 322.017 25.9574C322.019 25.8709 322.057 25.789 322.121 25.731C323.396 24.6521 325.265 24.6521 326.54 25.731C326.604 25.789 326.642 25.871 326.643 25.9575Z" fill="black"/>
<path fill-rule="evenodd" clip-rule="evenodd" d="M311.667 17.6667H310.667C310.114 17.6667 309.667 18.1144 309.667 18.6667V27.3333C309.667 27.8856 310.114 28.3333 310.667 28.3333H311.667C312.219 28.3333 312.667 27.8856 312.667 27.3333V18.6667C312.667 18.1144 312.219 17.6667 311.667 17.6667ZM306 20H307C307.552 20 308 20.4477 308 21V27.3333C308 27.8856 307.552 28.3333 307 28.3333H306C305.448 28.3333 305 27.8856 305 27.3333V21C305 20.4477 305.448 20 306 20ZM302.333 22.3333H301.333C300.781 22.3333 300.333 22.781 300.333 23.3333V27.3333C300.333 27.8856 300.781 28.3333 301.333 28.3333H302.333C302.885 28.3333 303.333 27.8856 303.333 27.3333V23.3333C303.333 22.781 302.885 22.3333 302.333 22.3333ZM297.667 24.3333H296.667C296.114 24.3333 295.667 24.781 295.667 25.3333V27.3333C295.667 27.8856 296.114 28.3333 296.667 28.3333H297.667C298.219 28.3333 298.667 27.8856 298.667 27.3333V25.3333C298.667 24.781 298.219 24.3333 297.667 24.3333Z" fill="black"/>
<path d="M34.8585 28.2393C33.0538 28.2393 31.6729 27.1865 31.3858 25.5801H33.1427C33.3546 26.332 34.0313 26.7969 34.879 26.7969C36.3214 26.7969 37.1485 25.4707 37.169 23.1533H37.0528C36.588 24.0898 35.6514 24.623 34.4962 24.623C32.6163 24.623 31.2491 23.2422 31.2491 21.3486C31.2491 19.332 32.7667 17.8896 34.9132 17.8896C37.2716 17.8896 38.8575 19.6807 38.8575 22.9482C38.8575 26.2773 37.3673 28.2393 34.8585 28.2393ZM34.92 23.2627C36.0616 23.2627 36.8751 22.4492 36.8751 21.3281C36.8751 20.1934 36.0411 19.3252 34.9268 19.3252C33.8126 19.3252 32.9786 20.1797 32.9786 21.2939C32.9786 22.4561 33.7716 23.2627 34.92 23.2627ZM41.6742 21.6152C41.0316 21.6152 40.5804 21.1641 40.5804 20.5557C40.5804 19.9473 41.0316 19.4961 41.6742 19.4961C42.3236 19.4961 42.7679 19.9473 42.7679 20.5557C42.7679 21.1641 42.3236 21.6152 41.6742 21.6152ZM41.6742 26.6328C41.0316 26.6328 40.5804 26.1748 40.5804 25.5732C40.5804 24.9648 41.0316 24.5137 41.6742 24.5137C42.3236 24.5137 42.7679 24.9648 42.7679 25.5732C42.7679 26.1748 42.3236 26.6328 41.6742 26.6328ZM49.3034 28V26.1064H44.484V24.6641C45.7623 22.4424 47.1637 20.1729 48.5036 18.1357H50.9918V24.6504H52.3248V26.1064H50.9918V28H49.3034ZM46.1178 24.5889V24.6914H49.3307V19.5439H49.235C48.2233 21.0889 47.0817 22.9141 46.1178 24.5889ZM56.0849 28V19.8721H55.9687L53.5146 21.6084V19.9473L56.0917 18.1357H57.8486V28H56.0849Z" fill="black"/>
</g>
<defs>
<clipPath id="clip0_883_502">
<rect width="375" height="44" fill="white"/>
</clipPath>
</defs>
</svg>
